<svg xmlns="http://www.w3.org/2000/svg" viewBox="0 0 64 64" width="64" height="64">
  <g stroke="#8b0000" stroke-width="3" stroke-linejoin="round" stroke-linecap="round">
    <path d="M14,44 C10,36 12,26 20,20 C26,16 36,18 40,24" fill="#ff4500"/>
    
    <g fill="#ffffff">
        <path d="M40,24 C48,30 52,40 48,50 C44,58 30,60 22,54 C18,50 14,44 14,44"/>
        <path d="M20,20 C24,26 28,30 34,34" fill="none" stroke="#ff4500"/>
    </g>
    
    <path d="M26,48 C30,46 34,48 38,50" fill="none" stroke="#ff8a65" stroke-width="2"/>
    <path d="M30,40 C34,38 38,40 42,42" fill="none" stroke="#ff8a65" stroke-width="2"/>

    <g stroke="#ff8a65" stroke-width="2" fill="none">
        <path d="M36,14 Q40,10 38,6"/>
        <path d="M44,16 Q48,12 46,8"/>
    </g>
  </g>
</svg>