<svg xmlns="http://www.w3.org/2000/svg" viewBox="0 0 64 64" width="64" height="64">
  <path d="M20,34 Q32,30 44,34 L42,52 Q32,56 22,52 Z" fill="#3e2723" stroke="none"/>

  <g stroke="#8b0000" stroke-width="3" fill="#ff4500" stroke-linejoin="round" stroke-linecap="round">
    <path d="M24,14 L26,4 L32,8 L38,4 L40,14 Z" fill="#ff8a65"/>

    <path d="M14,46 C12,20 18,12 32,12 C46,12 52,20 50,46 L42,54 L32,58 L22,54 L14,46 Z" />

    <path d="M16,34 Q32,28 48,34" fill="none" stroke-width="4"/>
    
    <g fill="none" stroke-width="3">
        <path d="M32,32 L32,58" stroke-width="4"/> <path d="M24,34 C24,42 22,46 22,54"/> <path d="M40,34 C40,42 42,46 42,54"/> </g>

    <path d="M12,30 C8,26 4,28 6,34" fill="none" stroke-width="3"/>
    <path d="M52,30 C56,26 60,28 58,34" fill="none" stroke-width="3"/>
  </g>
</svg>