<svg xmlns="http://www.w3.org/2000/svg" viewBox="0 0 64 64" width="64" height="64">
  <g stroke="#2c3e50" stroke-width="3" stroke-linejoin="round">
    <path d="M40,14 C50,16 54,26 52,36 C50,44 40,48 32,46 C24,44 20,34 22,24 C24,16 32,12 40,14 Z" fill="#7f8c8d"/>
    <path d="M20,28 C28,26 34,32 32,42 C30,50 20,54 12,50 C6,46 4,36 8,28 C12,22 16,28 20,28 Z" fill="#95a5a6"/>
    <path d="M44,34 C52,32 58,38 56,48 C54,56 44,58 36,54 C30,50 32,40 36,34 C38,30 40,34 44,34 Z" fill="#bdc3c7"/>
  </g>
  <path d="M24,32 Q28,30 30,34" stroke="#ecf0f1" stroke-width="2" fill="none" opacity="0.6"/>
  <path d="M46,38 Q50,36 52,40" stroke="#ecf0f1" stroke-width="2" fill="none" opacity="0.6"/>
</svg>