<svg xmlns="http://www.w3.org/2000/svg" viewBox="0 0 64 64" width="64" height="64">
  <path d="M32,56 C32,56 34,40 32,28 C30,16 44,8 44,8" stroke="#388e3c" stroke-width="4" fill="none" stroke-linecap="round"/>
  <path d="M32,28 C20,24 12,32 12,32" stroke="#388e3c" stroke-width="3" fill="none" stroke-linecap="round"/>
  <path d="M44,8 C30,8 24,18 32,24 C38,28 50,20 44,8 Z" fill="#4caf50" stroke="#388e3c" stroke-width="2"/>

  <g fill="#d32f2f" stroke="#8e0000" stroke-width="2">
    <circle cx="24" cy="44" r="7"/>
    <circle cx="16" cy="36" r="7"/>
    <circle cx="30" cy="34" r="8"/>
    <circle cx="40" cy="42" r="8"/>
    <circle cx="36" cy="24" r="7"/>
    <circle cx="22" cy="26" r="7"/>
  </g>
  <g fill="#ffcdd2">
    <circle cx="22" cy="42" r="2"/>
    <circle cx="38" cy="40" r="2.5"/>
    <circle cx="28" cy="32" r="2.5"/>
  </g>
</svg>