<svg xmlns="http://www.w3.org/2000/svg" viewBox="0 0 64 64" width="64" height="64">
  <g stroke="#37474f" stroke-width="3" stroke-linejoin="round" stroke-linecap="round">
    <path d="M12,24 L20,32 M16,20 L24,28" stroke-width="4" fill="none" stroke="#eceff1"/>
    <circle cx="12" cy="20" r="5" fill="#eceff1"/>
    
    <path d="M20,32 C14,40 18,52 26,56 C34,60 50,54 56,42 C60,34 54,24 46,20 C38,16 28,24 20,32 Z" fill="#ef5350"/>
    
    <path d="M20,32 C18,28 22,24 26,26 C30,28 28,34 24,36 L20,32 Z" fill="#78909c"/>

    <path d="M32,36 C36,32 44,34 48,38" stroke="#ffcdd2" stroke-width="2" fill="none" opacity="0.8"/>
    <path d="M30,46 C36,44 40,46 44,48" stroke="#ffcdd2" stroke-width="2" fill="none" opacity="0.8"/>
  </g>
</svg>