<svg xmlns="http://www.w3.org/2000/svg" viewBox="0 0 64 64" width="64" height="64">
  <g stroke="#37474f" stroke-width="3" fill="#78909c" stroke-linejoin="round" stroke-linecap="round">
    <path d="M20,16 C14,20 10,28 8,36 L10,44 L6,52 L12,58 L18,54 L24,58 L32,56 L40,58 L46,54 L52,58 L58,52 L54,44 L56,36 C54,28 50,20 44,16"/>
    <path d="M22,16 L18,4 L30,10" fill="#90a4ae"/>
    <path d="M42,16 L46,4 L34,10" fill="#90a4ae"/>
    <path d="M20,16 C20,16 26,22 32,22 C38,22 44,16 44,16 L48,20 L42,24 L46,30 L38,32 L32,28 L26,32 L18,30 L22,24 L16,20 Z" fill="#cfd8dc"/>
    <path d="M26,22 Q32,26 38,22" fill="none" stroke-width="4" stroke="#546e7a"/>
    <path d="M16,36 L20,42 M48,36 L44,42 M32,40 L32,48" stroke="#cfd8dc" stroke-width="2" fill="none"/>
  </g>
</svg>