<svg xmlns="http://www.w3.org/2000/svg" viewBox="0 0 64 64" width="64" height="64">
  <g stroke="#004d40" stroke-width="3" fill="#00796b" stroke-linejoin="round" stroke-linecap="round">
    
    <path d="M14,14 Q6,2 16,2 Q26,2 22,14" />
    <path d="M50,14 Q58,2 48,2 Q38,2 42,14" />

    <ellipse cx="32" cy="28" rx="14" ry="16" />
    
    <g fill="#4527a0" stroke="#311b92" stroke-width="2">
        <ellipse cx="26" cy="24" rx="4" ry="6" />
        <ellipse cx="38" cy="24" rx="4" ry="6" />
        <ellipse cx="26" cy="22" rx="2" ry="3" fill="#9575cd" stroke="none"/>
        <ellipse cx="38" cy="22" rx="2" ry="3" fill="#9575cd" stroke="none"/>
    </g>
    
    <path d="M32,40 L28,36 L36,36 Z" fill="#004d40"/>

    <path d="M20,40 C10,42 4,52 12,60" />
    <path d="M44,40 C54,42 60,52 52,60" />
    <path d="M28,42 C24,52 30,62 36,58" />
    <path d="M36,42 C40,52 34,62 28,58" />
    <path d="M10,30 C2,32 -2,42 6,50" />
    <path d="M54,30 C62,32 66,42 58,50" />
  </g>

  <g fill="#4db6ac" stroke="none">
      <circle cx="14" cy="56" r="2"/> <circle cx="8" cy="48" r="2"/>
      <circle cx="50" cy="56" r="2"/> <circle cx="56" cy="48" r="2"/>
      <circle cx="32" cy="56" r="2.5"/>
      <circle cx="14" cy="6" r="2"/> <circle cx="50" cy="6" r="2"/>
  </g>
</svg>