<?xml version="1.0" encoding="UTF-8" standalone="no"?>
<!-- Created with Inkscape (http://www.inkscape.org/) -->

<svg
   width="67.216042mm"
   height="55.869877mm"
   viewBox="0 0 67.216041 55.869877"
   version="1.1"
   id="pirate"
   xml:space="preserve"
   sodipodi:docname="pirate-reborn-v2.svg"
   inkscape:version="1.4.3 (0d15f75, 2025-12-25)"
   xmlns:inkscape="http://www.inkscape.org/namespaces/inkscape"
   xmlns:sodipodi="http://sodipodi.sourceforge.net/DTD/sodipodi-0.dtd"
   xmlns="http://www.w3.org/2000/svg"
   xmlns:svg="http://www.w3.org/2000/svg"><sodipodi:namedview
     id="namedview1"
     pagecolor="#ffffff"
     bordercolor="#000000"
     borderopacity="0.25"
     inkscape:showpageshadow="2"
     inkscape:pageopacity="0.0"
     inkscape:pagecheckerboard="0"
     inkscape:deskcolor="#d1d1d1"
     inkscape:document-units="mm"
     inkscape:zoom="2"
     inkscape:cx="103.75"
     inkscape:cy="113.75"
     inkscape:window-width="1920"
     inkscape:window-height="1017"
     inkscape:window-x="-8"
     inkscape:window-y="-8"
     inkscape:window-maximized="1"
     inkscape:current-layer="pirate"
     showgrid="false"><inkscape:grid
       id="grid14"
       units="mm"
       originx="0.10002481"
       originy="-10.012236"
       spacingx="0.99999999"
       spacingy="0.99999998"
       empcolor="#0099e5"
       empopacity="0.30196078"
       color="#0099e5"
       opacity="0.14901961"
       empspacing="5"
       enabled="true"
       visible="false" /></sodipodi:namedview><defs
     id="defs1" /><g
     id="shirt"
     transform="translate(-68.842688,-112.69929)"><path
       style="fill:#428ec0;fill-opacity:1;stroke:#310a0a;stroke-width:1.95;stroke-dasharray:none;stroke-opacity:1"
       d="m 77.501482,143.16961 c 2.227081,17.94416 13.920574,23.83122 24.534638,24.40703 16.46582,-0.58847 23.99173,-13.63916 24.90355,-23.51837 l -23.66672,-5.7062 z"
       id="path12"
       sodipodi:nodetypes="ccccc" /><path
       style="fill:none;fill-opacity:1;stroke:#276f99;stroke-width:2.15;stroke-dasharray:none;stroke-opacity:1"
       d="m 78.779686,145.98385 c 4.794771,9.79404 12.33366,14.92445 23.812494,15.0151 14.45228,-0.34096 18.89332,-7.85645 22.95261,-15.47812"
       id="path13"
       sodipodi:nodetypes="ccc" /><path
       style="fill:none;fill-opacity:1;stroke:#276f99;stroke-width:2.15;stroke-dasharray:none;stroke-opacity:1"
       d="m 81.557812,156.03802 c 7.442173,7.39533 15.570623,8.01196 21.298948,8.33437 5.86807,-0.5572 12.04465,-1.08824 18.58699,-6.48229"
       id="path14"
       sodipodi:nodetypes="ccc" /><path
       style="fill:none;fill-opacity:1;stroke:#310a0a;stroke-width:1.95;stroke-dasharray:none;stroke-opacity:1"
       d="m 77.559725,143.18619 c 2.22709,17.94416 13.92058,23.83122 24.534645,24.40703 16.46582,-0.58847 23.99173,-13.63916 24.90355,-23.51837 l -23.66672,-5.7062 z"
       id="path12-1"
       sodipodi:nodetypes="ccccc" /></g><g
     id="face"
     transform="translate(-68.974979,-108.86283)"><path
       style="display:inline;fill:#efbb82;fill-opacity:1;stroke:#310a0a;stroke-width:1.965;stroke-dasharray:none;stroke-opacity:1"
       d="m 82.76825,146.67791 c 4.370239,9.04101 12.048258,10.81418 19.54187,11.20583 12.46378,-0.20764 16.63363,-6.46802 19.76963,-11.66135"
       id="path8"
       sodipodi:nodetypes="ccc"
       inkscape:label="path8" /><ellipse
       style="fill:#2f0d0b;fill-opacity:1;stroke:#310a0a;stroke-width:1.61328;stroke-dasharray:none;stroke-opacity:1"
       id="path9"
       cx="108.27422"
       cy="148.89374"
       rx="1.7664841"
       ry="3.0103638" /><ellipse
       style="fill:#2f0d0b;fill-opacity:1;stroke:#310a0a;stroke-width:1.60541;stroke-dasharray:none;stroke-opacity:1"
       id="path9-9"
       cx="96.365288"
       cy="148.92157"
       rx="1.7470289"
       ry="3.0142946" /></g><g
     id="hat"
     style="display:inline"
     transform="matrix(0.9316328,0,0,0.7761928,-61.715172,-71.070944)"><path
       style="display:none;fill:#4d302e;fill-opacity:1;stroke:#2e0b09;stroke-width:2.065;stroke-dasharray:none;stroke-opacity:1"
       d="m 69.922887,131.94093 c 2.150411,0.90689 3.874953,1.62607 7.221567,1.57601 7.810646,-2.67352 9.018488,-8.76578 12.500252,-11.99137 6.515426,-6.1628 9.382358,-5.12059 12.472784,-5.90189 7.28104,0.2343 9.28173,2.99119 12.29325,5.35795 4.24064,5.09796 8.03439,10.60747 12.57533,12.43086 4.66583,0.37841 5.38766,-0.87565 7.6527,-1.47938 -0.49753,-5.22946 -1.42919,-10.43978 -4.34838,-15.75081 -2.08049,-4.75623 -4.6509,-10.05865 -10.43612,-14.16792 -5.78843,-5.150279 -12.01729,-5.680784 -18.28207,-6.186651 -6.749706,0.07153 -12.018541,2.942374 -16.840422,6.146631 -4.717191,3.58656 -8.128373,9.20704 -11.026952,15.46091 -2.183588,4.86404 -3.037962,9.76157 -3.781939,14.50566 z"
       id="path1"
       sodipodi:nodetypes="ccccccccccccc" /><path
       style="display:inline;fill:#4d302e;fill-opacity:1;stroke:#2e0b09;stroke-width:2.065;stroke-dasharray:none;stroke-opacity:1"
       d="m 69.876992,131.73681 c 6.251254,-48.056182 58.585958,-48.358002 64.866258,0.54662"
       id="path2"
       sodipodi:nodetypes="cc" /><path
       style="fill:#4d302e;fill-opacity:1;stroke:#2e0b09;stroke-width:2.065;stroke-dasharray:none;stroke-opacity:1"
       d="m 69.888045,131.58128 c -0.0097,1.34878 -0.245981,2.5925 0.467247,4.34633 8.01244,19.86031 59.801618,15.58044 63.932438,0 0.51949,-1.23351 0.5675,-2.46185 0.46057,-3.83744"
       id="path3"
       sodipodi:nodetypes="cccc" /><path
       style="fill:#4d302e;fill-opacity:1;stroke:#2e0b09;stroke-width:2.065;stroke-dasharray:none;stroke-opacity:1"
       d="m 70.137781,131.93311 c 1.962707,0.83596 3.883661,1.76496 6.172975,1.62109 9.192496,-1.05759 12.018592,-18.02084 25.977554,-17.86058 12.9179,-0.67213 17.4987,16.14396 24.71077,17.68342 2.64132,0.52616 5.03354,-0.4219 7.31759,-1.44393"
       id="path4"
       sodipodi:nodetypes="ccccc" /></g><g
     id="hat-logo"
     style="display:inline"
     transform="matrix(0.57688602,0,0,0.59781268,-25.741448,-47.835347)"><g
       id="bone1"><path
         style="fill:#ffffff;fill-opacity:1;stroke:#ffffff;stroke-width:1.465;stroke-dasharray:none;stroke-opacity:1"
         d="m 96.661654,136.54256 11.775226,5.48903"
         id="path5" /><path
         style="fill:#ffffff;fill-opacity:1;stroke:#ffffff;stroke-width:1.465;stroke-dasharray:none;stroke-opacity:1"
         d="m 107.08292,141.41097 c 0.25392,0.0778 0.51376,0.15568 0.68446,0.23352 0.38341,-0.0869 1.11816,-0.92524 1.34479,-0.62004 0.086,0.17609 0.34515,0.5459 -0.66032,0.90994 -0.778,0.0562 -0.77905,-0.36083 -1.36893,-0.52342 z"
         id="path6"
         sodipodi:nodetypes="ccccc" /><path
         style="fill:#ffffff;fill-opacity:1;stroke:#ffffff;stroke-width:1.465;stroke-dasharray:none;stroke-opacity:1"
         d="m 107.02111,141.36959 c 0.23456,0.12453 0.47337,0.2532 0.64911,0.31886 0.20966,0.33256 0.13642,1.4449 0.51248,1.38935 0.18532,-0.0637 0.63006,-0.14196 0.1765,-1.11034 -0.51039,-0.58987 -0.80601,-0.29573 -1.33809,-0.59787 z"
         id="path6-4"
         sodipodi:nodetypes="ccccc" /><path
         style="fill:#ffffff;fill-opacity:1;stroke:#ffffff;stroke-width:1.465;stroke-dasharray:none;stroke-opacity:1"
         d="m 97.516659,136.9379 c -0.246173,-0.0996 -0.498237,-0.19987 -0.661503,-0.29229 -0.389525,0.0531 -1.194545,0.82427 -1.393713,0.50048 -0.07032,-0.18292 -0.296258,-0.57391 0.737114,-0.84893 0.779937,0.0118 0.744637,0.42736 1.318102,0.64074 z"
         id="path6-1"
         sodipodi:nodetypes="ccccc" /><path
         style="fill:#ffffff;fill-opacity:1;stroke:#ffffff;stroke-width:1.465;stroke-dasharray:none;stroke-opacity:1"
         d="m 97.574627,136.98451 c -0.222814,-0.1445 -0.449501,-0.2935 -0.61885,-0.37422 -0.179877,-0.34957 -0.01,-1.45129 -0.38944,-1.42873 -0.190166,0.0473 -0.640035,0.0865 -0.272601,1.09073 0.457038,0.63211 0.777169,0.36485 1.280891,0.71222 z"
         id="path6-4-1"
         sodipodi:nodetypes="ccccc" /></g><g
       id="bone2"
       transform="matrix(-1,0,0,1,204.67147,0.01210796)"><path
         style="fill:#ffffff;fill-opacity:1;stroke:#ffffff;stroke-width:1.465;stroke-dasharray:none;stroke-opacity:1"
         d="m 96.661654,136.54256 11.775226,5.48903"
         id="path5-1" /><path
         style="fill:#ffffff;fill-opacity:1;stroke:#ffffff;stroke-width:1.465;stroke-dasharray:none;stroke-opacity:1"
         d="m 107.08292,141.41097 c 0.25392,0.0778 0.51376,0.15568 0.68446,0.23352 0.38341,-0.0869 1.11816,-0.92524 1.34479,-0.62004 0.086,0.17609 0.34515,0.5459 -0.66032,0.90994 -0.778,0.0562 -0.77905,-0.36083 -1.36893,-0.52342 z"
         id="path6-42"
         sodipodi:nodetypes="ccccc" /><path
         style="fill:#ffffff;fill-opacity:1;stroke:#ffffff;stroke-width:1.465;stroke-dasharray:none;stroke-opacity:1"
         d="m 107.02111,141.36959 c 0.23456,0.12453 0.47337,0.2532 0.64911,0.31886 0.20966,0.33256 0.13642,1.4449 0.51248,1.38935 0.18532,-0.0637 0.63006,-0.14196 0.1765,-1.11034 -0.51039,-0.58987 -0.80601,-0.29573 -1.33809,-0.59787 z"
         id="path6-4-3"
         sodipodi:nodetypes="ccccc" /><path
         style="fill:#ffffff;fill-opacity:1;stroke:#ffffff;stroke-width:1.465;stroke-dasharray:none;stroke-opacity:1"
         d="m 97.516659,136.9379 c -0.246173,-0.0996 -0.498237,-0.19987 -0.661503,-0.29229 -0.389525,0.0531 -1.194545,0.82427 -1.393713,0.50048 -0.07032,-0.18292 -0.296258,-0.57391 0.737114,-0.84893 0.779937,0.0118 0.744637,0.42736 1.318102,0.64074 z"
         id="path6-1-2"
         sodipodi:nodetypes="ccccc" /><path
         style="fill:#ffffff;fill-opacity:1;stroke:#ffffff;stroke-width:1.465;stroke-dasharray:none;stroke-opacity:1"
         d="m 97.574627,136.98451 c -0.222814,-0.1445 -0.449501,-0.2935 -0.61885,-0.37422 -0.179877,-0.34957 -0.01,-1.45129 -0.38944,-1.42873 -0.190166,0.0473 -0.640035,0.0865 -0.272601,1.09073 0.457038,0.63211 0.777169,0.36485 1.280891,0.71222 z"
         id="path6-4-1-2"
         sodipodi:nodetypes="ccccc" /></g><g
       id="skull"><ellipse
         style="fill:#ffffff;fill-opacity:1;stroke:#ffffff;stroke-width:1.576;stroke-dasharray:none;stroke-opacity:1"
         id="path7"
         cx="102.28735"
         cy="130.24496"
         rx="4.1125202"
         ry="4.0100279" /><rect
         style="fill:#ffffff;fill-opacity:1;stroke:#ffffff;stroke-width:1.54449;stroke-dasharray:none;stroke-opacity:1"
         id="rect8"
         width="3.6557908"
         height="1.2415298"
         x="100.505"
         y="134.23636"
         ry="0.33624616" /></g></g></svg>
