<svg xmlns="http://www.w3.org/2000/svg" viewBox="0 0 64 64" width="64" height="64">
  <g stroke="#37474f" stroke-width="3" stroke-linejoin="round" stroke-linecap="round">
    <path d="M14,46 C10,52 18,58 32,58 C46,58 54,52 50,46 C54,40 52,34 48,30 L44,34 L40,28 L36,32 C34,31 30,31 28,32 L24,28 L20,34 L16,30 C12,34 10,40 14,46 Z" fill="#cfd8dc"/>

    <path d="M18,28 L12,8 L26,18 C30,16 34,16 38,18 L52,8 L46,28 C52,32 52,42 46,48 L38,52 L26,52 L18,48 C12,42 12,32 18,28 Z" fill="#78909c"/>

    <g fill="#90a4ae" stroke-width="2">
        <path d="M18,24 L17,12 L24,18 Z"/>
        <path d="M46,24 L47,12 L40,18 Z"/>
    </g>

    <path d="M24,36 C24,36 28,34 32,34 C36,34 40,36 40,36 C42,42 38,50 32,52 C26,50 22,42 24,36 Z" fill="#cfd8dc"/>

    <path d="M28,44 L36,44 L32,49 Z" fill="#37474f"/>

    <g fill="#ffffff" stroke="none">
        <path d="M20,30 L28,33 L22,37 Z"/>
        <path d="M44,30 L36,33 L42,37 Z"/>
    </g>
    
    <path d="M27,28 Q32,32 37,28" fill="none" stroke-width="2" opacity="0.8"/>
  </g>
</svg>